<?xml version="1.0" encoding="UTF-8"?>
<svg width="288px" height="108px" viewBox="0 0 288 108" version="1.1" xmlns="http://www.w3.org/2000/svg" xmlns:xlink="http://www.w3.org/1999/xlink">
    <defs></defs>
    <g id="Page-1" stroke="none" stroke-width="1" fill="none" fill-rule="evenodd">
        <g id="web_logo_small" fill="#FFFFFF">
            <polyline id="Z" points="281.982702 44.6952016 225.138251 44.7161938 221.218371 60.1920972 263.00443 60.294523 221.269608 82.6860536 223.850982 100.310234 281.633868 100.440959 284 85.9357793 245.355796 85.8289591 283.97006 65.3194696"></polyline>
            <polygon id="W" points="195.984485 77.376287 186.242508 44.6432444 172.214062 44.6432444 162.472085 77.7659661 154.912311 44.6432444 139.481019 44.6432444 153.587402 99.8997377 169.252501 99.8997377 179.072413 66.387337 188.892326 99.8997377 204.245682 99.8997377 218.352065 44.6432444 203.388388 44.6432444"></polygon>
            <polygon id="E" points="132.01217 99.8997377 132.01217 87.0403281 110.9695 87.0403281 110.9695 78.1556451 129.985839 78.1556451 129.985839 65.9976579 110.9695 65.9976579 110.9695 57.2688465 131.856298 57.2688465 131.856298 44.6432444 96.473438 44.6432444 96.473438 99.8997377"></polygon>
            <polygon id="N" points="89.8801094 100.505822 89.8474762 9.13473909 65.7895563 4.6448518 65.7895563 65.5655904 33.9067225 4.6448518 3.42428385 8.79802342 3.22106779 99.9555072 25.7699577 103.688284 25.9360141 42.723721 57.8188478 103.641052"></polygon>
        </g>
    </g>
</svg>
